<mxfile host="app.diagrams.net" modified="2023-02-13T03:49:49.209Z" agent="5.0 (X11)" etag="mSRG16M9IeW3RGKXhbJa" version="20.8.18" type="github">
  <diagram name="Page-1" id="OCK6AMMYgmj7pzFx9xDq">
    <mxGraphModel dx="1144" dy="647" grid="1" gridSize="10" guides="1" tooltips="1" connect="1" arrows="1" fold="1" page="1" pageScale="1" pageWidth="850" pageHeight="1100" math="0" shadow="0">
      <root>
        <mxCell id="0" />
        <mxCell id="1" parent="0" />
        <mxCell id="G7otnzKWQF64ZexDorMU-1" value="User" style="swimlane;horizontal=0;whiteSpace=wrap;html=1;startSize=23;" vertex="1" parent="1">
          <mxGeometry x="40" y="100" width="910" height="160" as="geometry" />
        </mxCell>
        <mxCell id="G7otnzKWQF64ZexDorMU-2" value="Open Email and click url" style="shape=ellipse;html=1;fillColor=strokeColor;strokeWidth=2;verticalLabelPosition=bottom;verticalAlignment=top;perimeter=ellipsePerimeter;" vertex="1" parent="G7otnzKWQF64ZexDorMU-1">
          <mxGeometry x="180" y="20" width="40" height="40" as="geometry" />
        </mxCell>
        <mxCell id="G7otnzKWQF64ZexDorMU-4" value="Give new User information" style="rounded=1;whiteSpace=wrap;html=1;strokeWidth=2;fontFamily=Helvetica;fontSize=12;" vertex="1" parent="G7otnzKWQF64ZexDorMU-1">
          <mxGeometry x="385" y="20" width="120" height="60" as="geometry" />
        </mxCell>
        <mxCell id="G7otnzKWQF64ZexDorMU-5" value="PopupController" style="swimlane;horizontal=0;whiteSpace=wrap;html=1;startSize=23;" vertex="1" parent="1">
          <mxGeometry x="40" y="890" width="910" height="160" as="geometry" />
        </mxCell>
        <mxCell id="G7otnzKWQF64ZexDorMU-41" style="edgeStyle=orthogonalEdgeStyle;rounded=0;orthogonalLoop=1;jettySize=auto;html=1;entryX=1;entryY=0.5;entryDx=0;entryDy=0;dashed=1;" edge="1" parent="G7otnzKWQF64ZexDorMU-5" source="G7otnzKWQF64ZexDorMU-7" target="G7otnzKWQF64ZexDorMU-38">
          <mxGeometry relative="1" as="geometry" />
        </mxCell>
        <mxCell id="G7otnzKWQF64ZexDorMU-7" value="Prompt Verification success" style="rounded=1;whiteSpace=wrap;html=1;strokeWidth=2;fontFamily=Helvetica;fontSize=12;" vertex="1" parent="G7otnzKWQF64ZexDorMU-5">
          <mxGeometry x="560" y="40" width="120" height="60" as="geometry" />
        </mxCell>
        <mxCell id="G7otnzKWQF64ZexDorMU-46" style="edgeStyle=orthogonalEdgeStyle;rounded=0;orthogonalLoop=1;jettySize=auto;html=1;dashed=1;" edge="1" parent="G7otnzKWQF64ZexDorMU-5" source="G7otnzKWQF64ZexDorMU-8" target="G7otnzKWQF64ZexDorMU-38">
          <mxGeometry relative="1" as="geometry" />
        </mxCell>
        <mxCell id="G7otnzKWQF64ZexDorMU-8" value="Prompt Email is invalid wait for new email" style="rounded=1;whiteSpace=wrap;html=1;strokeWidth=2;fontFamily=Helvetica;fontSize=12;" vertex="1" parent="G7otnzKWQF64ZexDorMU-5">
          <mxGeometry x="180" y="40" width="120" height="60" as="geometry" />
        </mxCell>
        <mxCell id="G7otnzKWQF64ZexDorMU-38" value="" style="ellipse;html=1;shape=endState;fillColor=#000000;strokeColor=#ff0000;strokeWidth=2;fontFamily=Helvetica;fontSize=12;fontColor=default;" vertex="1" parent="G7otnzKWQF64ZexDorMU-5">
          <mxGeometry x="420" y="55" width="30" height="30" as="geometry" />
        </mxCell>
        <mxCell id="G7otnzKWQF64ZexDorMU-10" value="UserController" style="swimlane;horizontal=0;whiteSpace=wrap;html=1;" vertex="1" parent="1">
          <mxGeometry x="40" y="680" width="910" height="200" as="geometry" />
        </mxCell>
        <mxCell id="G7otnzKWQF64ZexDorMU-11" value="Mark user status activating" style="rounded=1;whiteSpace=wrap;html=1;strokeWidth=2;fontFamily=Helvetica;fontSize=12;" vertex="1" parent="G7otnzKWQF64ZexDorMU-10">
          <mxGeometry x="450" y="30" width="120" height="60" as="geometry" />
        </mxCell>
        <mxCell id="G7otnzKWQF64ZexDorMU-15" value="User click email" style="text;html=1;strokeColor=none;fillColor=none;align=center;verticalAlign=middle;whiteSpace=wrap;rounded=0;fontSize=19;" vertex="1" parent="1">
          <mxGeometry x="400" y="40" width="290" height="30" as="geometry" />
        </mxCell>
        <mxCell id="G7otnzKWQF64ZexDorMU-18" value="SendEmailController" style="swimlane;horizontal=0;whiteSpace=wrap;html=1;" vertex="1" parent="1">
          <mxGeometry x="40" y="270" width="910" height="400" as="geometry" />
        </mxCell>
        <mxCell id="G7otnzKWQF64ZexDorMU-31" value="" style="edgeStyle=orthogonalEdgeStyle;rounded=0;orthogonalLoop=1;jettySize=auto;html=1;dashed=1;" edge="1" parent="G7otnzKWQF64ZexDorMU-18" source="G7otnzKWQF64ZexDorMU-19" target="G7otnzKWQF64ZexDorMU-30">
          <mxGeometry relative="1" as="geometry" />
        </mxCell>
        <mxCell id="G7otnzKWQF64ZexDorMU-19" value="Compare email live time" style="rounded=1;whiteSpace=wrap;html=1;strokeWidth=2;fontFamily=Helvetica;fontSize=12;" vertex="1" parent="G7otnzKWQF64ZexDorMU-18">
          <mxGeometry x="140" y="30" width="120" height="60" as="geometry" />
        </mxCell>
        <mxCell id="G7otnzKWQF64ZexDorMU-34" style="edgeStyle=orthogonalEdgeStyle;rounded=0;orthogonalLoop=1;jettySize=auto;html=1;entryX=0.5;entryY=0;entryDx=0;entryDy=0;entryPerimeter=0;dashed=1;" edge="1" parent="G7otnzKWQF64ZexDorMU-18" source="G7otnzKWQF64ZexDorMU-21" target="G7otnzKWQF64ZexDorMU-33">
          <mxGeometry relative="1" as="geometry" />
        </mxCell>
        <mxCell id="G7otnzKWQF64ZexDorMU-21" value="check activation hash code" style="rounded=1;whiteSpace=wrap;html=1;strokeWidth=2;fontFamily=Helvetica;fontSize=12;" vertex="1" parent="G7otnzKWQF64ZexDorMU-18">
          <mxGeometry x="480" y="100" width="120" height="60" as="geometry" />
        </mxCell>
        <mxCell id="G7otnzKWQF64ZexDorMU-32" value="yes" style="edgeStyle=orthogonalEdgeStyle;rounded=0;orthogonalLoop=1;jettySize=auto;html=1;entryX=0;entryY=0.5;entryDx=0;entryDy=0;dashed=1;" edge="1" parent="G7otnzKWQF64ZexDorMU-18" source="G7otnzKWQF64ZexDorMU-30" target="G7otnzKWQF64ZexDorMU-21">
          <mxGeometry relative="1" as="geometry" />
        </mxCell>
        <mxCell id="G7otnzKWQF64ZexDorMU-44" style="edgeStyle=orthogonalEdgeStyle;rounded=0;orthogonalLoop=1;jettySize=auto;html=1;dashed=1;" edge="1" parent="G7otnzKWQF64ZexDorMU-18" source="G7otnzKWQF64ZexDorMU-30">
          <mxGeometry relative="1" as="geometry">
            <mxPoint x="240" y="290" as="targetPoint" />
            <Array as="points">
              <mxPoint x="350" y="210" />
              <mxPoint x="240" y="210" />
            </Array>
          </mxGeometry>
        </mxCell>
        <mxCell id="G7otnzKWQF64ZexDorMU-47" value="no" style="edgeLabel;html=1;align=center;verticalAlign=middle;resizable=0;points=[];" vertex="1" connectable="0" parent="G7otnzKWQF64ZexDorMU-44">
          <mxGeometry x="-0.7091" y="4" relative="1" as="geometry">
            <mxPoint as="offset" />
          </mxGeometry>
        </mxCell>
        <mxCell id="G7otnzKWQF64ZexDorMU-30" value="Is email still valid?" style="strokeWidth=2;html=1;shape=mxgraph.flowchart.decision;whiteSpace=wrap;" vertex="1" parent="G7otnzKWQF64ZexDorMU-18">
          <mxGeometry x="300" y="80" width="100" height="100" as="geometry" />
        </mxCell>
        <mxCell id="G7otnzKWQF64ZexDorMU-48" style="edgeStyle=orthogonalEdgeStyle;rounded=0;orthogonalLoop=1;jettySize=auto;html=1;entryX=1;entryY=0.5;entryDx=0;entryDy=0;dashed=1;" edge="1" parent="G7otnzKWQF64ZexDorMU-18" source="G7otnzKWQF64ZexDorMU-33" target="G7otnzKWQF64ZexDorMU-43">
          <mxGeometry relative="1" as="geometry" />
        </mxCell>
        <mxCell id="G7otnzKWQF64ZexDorMU-49" value="no" style="edgeLabel;html=1;align=center;verticalAlign=middle;resizable=0;points=[];" vertex="1" connectable="0" parent="G7otnzKWQF64ZexDorMU-48">
          <mxGeometry x="-0.528" y="-1" relative="1" as="geometry">
            <mxPoint as="offset" />
          </mxGeometry>
        </mxCell>
        <mxCell id="G7otnzKWQF64ZexDorMU-33" value="Does activation hash code match ?" style="strokeWidth=2;html=1;shape=mxgraph.flowchart.decision;whiteSpace=wrap;" vertex="1" parent="G7otnzKWQF64ZexDorMU-18">
          <mxGeometry x="490" y="200" width="100" height="100" as="geometry" />
        </mxCell>
        <mxCell id="G7otnzKWQF64ZexDorMU-43" value="send a new email" style="rounded=1;whiteSpace=wrap;html=1;strokeWidth=2;fontFamily=Helvetica;fontSize=12;" vertex="1" parent="G7otnzKWQF64ZexDorMU-18">
          <mxGeometry x="180" y="280" width="120" height="60" as="geometry" />
        </mxCell>
        <mxCell id="G7otnzKWQF64ZexDorMU-29" style="edgeStyle=orthogonalEdgeStyle;rounded=0;orthogonalLoop=1;jettySize=auto;html=1;dashed=1;" edge="1" parent="1" source="G7otnzKWQF64ZexDorMU-2" target="G7otnzKWQF64ZexDorMU-19">
          <mxGeometry relative="1" as="geometry" />
        </mxCell>
        <mxCell id="G7otnzKWQF64ZexDorMU-35" style="edgeStyle=orthogonalEdgeStyle;rounded=0;orthogonalLoop=1;jettySize=auto;html=1;dashed=1;" edge="1" parent="1" source="G7otnzKWQF64ZexDorMU-33" target="G7otnzKWQF64ZexDorMU-11">
          <mxGeometry relative="1" as="geometry">
            <mxPoint x="420" y="660" as="targetPoint" />
          </mxGeometry>
        </mxCell>
        <mxCell id="G7otnzKWQF64ZexDorMU-36" value="yes" style="edgeLabel;html=1;align=center;verticalAlign=middle;resizable=0;points=[];" vertex="1" connectable="0" parent="G7otnzKWQF64ZexDorMU-35">
          <mxGeometry x="-0.5744" y="1" relative="1" as="geometry">
            <mxPoint as="offset" />
          </mxGeometry>
        </mxCell>
        <mxCell id="G7otnzKWQF64ZexDorMU-39" style="edgeStyle=orthogonalEdgeStyle;rounded=0;orthogonalLoop=1;jettySize=auto;html=1;dashed=1;" edge="1" parent="1" source="G7otnzKWQF64ZexDorMU-11" target="G7otnzKWQF64ZexDorMU-7">
          <mxGeometry relative="1" as="geometry" />
        </mxCell>
        <mxCell id="G7otnzKWQF64ZexDorMU-45" style="edgeStyle=orthogonalEdgeStyle;rounded=0;orthogonalLoop=1;jettySize=auto;html=1;dashed=1;" edge="1" parent="1" source="G7otnzKWQF64ZexDorMU-43" target="G7otnzKWQF64ZexDorMU-8">
          <mxGeometry relative="1" as="geometry">
            <mxPoint x="280" y="900" as="targetPoint" />
          </mxGeometry>
        </mxCell>
      </root>
    </mxGraphModel>
  </diagram>
</mxfile>
